<?xml version="1.0" encoding="utf-8"?>
<!-- Generator: Adobe Illustrator 19.2.0, SVG Export Plug-In . SVG Version: 6.00 Build 0)  -->
<svg version="1.1" id="Слой_1" xmlns="http://www.w3.org/2000/svg" xmlns:xlink="http://www.w3.org/1999/xlink" x="0px" y="0px"
	 viewBox="0 0 229 28" style="enable-background:new 0 0 229 28;" xml:space="preserve" width="240" height="30">
<style type="text/css">
	.st0{fill:#DC7D46;}
	.st1{fill:#D14A43;}
	.st2{fill:#FFFFFF;}
</style>
<title>logo SG</title>
<path class="st0" d="M5,3.3c3.5-1.8,9.7,0,9,3.3C13.3,10,2.9,12.1,5.2,22.1c0.4,1.3,1,2.5,1.9,3.5c-0.9-1.1-1.3-2.5-1.1-3.9
	c0.4-2.1,2.7-4.6,5.7-6.5c3.7-2.3,10.4-4.7,9.2-10.4C20.3,1.1,17.2,0,13.9,0c-1.2,0-2.3,0.2-3.4,0.4C9.3,0.8,8.1,1.3,7.1,1.9
	C6.3,2.3,5.6,2.8,5,3.3L5,3.3L5,3.3z"/>
<path class="st1" d="M13.9,5.1c-1.5-3-6.1-3.5-8.8-1.8C4.2,4,3.4,4.9,2.7,5.9c-4.2,5.9-3.4,13.9,1.8,18.9C4.7,25,5,25.2,5.3,25.5
	c-1.2-0.9-2.6-5-2.9-6.5C1.5,12.1,5.6,5.2,13.9,5.1L13.9,5.1z"/>
<path class="st0" d="M15.9,20.7c-1.9,5.5,9.4,6.4,11.6-7.7c0.1-0.7,0.2-1.5,0.1-2.2c0.5,2.1,0.5,4.2,0.1,6.3
	c-0.7,3.9-3.1,7.4-6.5,9.5c-2.1,1.3-6.2,2.7-7.2-0.7C13.3,22.8,15.9,20.7,15.9,20.7L15.9,20.7L15.9,20.7z"/>
<path class="st1" d="M22.3,2.8c0.8,1,1.3,2.2,1.5,3.4c1.2,7.7-11.3,9.3-12.4,14.2c-0.4,3,1.2,6,4.1,7.2c-0.2-0.1-0.4-0.3-0.6-0.5
	c-0.4-0.5-0.7-1.1-0.8-1.8c-0.2-2.1,0.8-4.1,2.5-5.3c5.3-3.6,11.6-7.4,7.9-14.8C24.1,4.3,23.3,3.4,22.3,2.8L22.3,2.8L22.3,2.8z"/>
<path class="st0" d="M5,3.3c3.5-1.8,9.7,0,9,3.3C13.3,10,2.9,12.1,5.2,22.1c0.4,1.3,1,2.5,1.9,3.5c-0.9-1.1-1.3-2.5-1.1-3.9
	c0.4-2.1,2.7-4.6,5.7-6.5c3.7-2.3,10.4-4.7,9.2-10.4C20.3,1.1,17.2,0,13.9,0c-1.2,0-2.3,0.2-3.4,0.4C9.3,0.8,8.1,1.3,7.1,1.9
	C6.3,2.3,5.6,2.8,5,3.3L5,3.3L5,3.3z"/>
<path class="st1" d="M13.9,5.1c-1.5-3-6.1-3.5-8.8-1.8C4.2,4,3.4,4.9,2.7,5.9c-4.2,5.9-3.4,13.9,1.8,18.9C4.7,25,5,25.2,5.3,25.5
	c-1.2-0.9-2.6-5-2.9-6.5C1.5,12.1,5.6,5.2,13.9,5.1L13.9,5.1z"/>
<path class="st0" d="M15.9,20.7c-1.9,5.5,9.4,6.4,11.6-7.7c0.1-0.7,0.2-1.5,0.1-2.2c0.5,2.1,0.5,4.2,0.1,6.3
	c-0.7,3.9-3.1,7.4-6.5,9.5c-2.1,1.3-6.2,2.7-7.2-0.7C13.3,22.8,15.9,20.7,15.9,20.7L15.9,20.7L15.9,20.7z"/>
<path class="st1" d="M22.3,2.8c0.8,1,1.3,2.2,1.5,3.4c1.2,7.7-11.3,9.3-12.4,14.2c-0.4,3,1.2,6,4.1,7.2c-0.2-0.1-0.4-0.3-0.6-0.5
	c-0.4-0.5-0.7-1.1-0.8-1.8c-0.2-2.1,0.8-4.1,2.5-5.3c5.3-3.6,11.6-7.4,7.9-14.8C24.1,4.3,23.3,3.4,22.3,2.8L22.3,2.8L22.3,2.8z"/>
<g>
	<path class="st2" d="M41.2,15.6c-0.1,1.2,0.4,2.3,1.4,3.1c0.7,0.5,1.6,0.7,2.4,0.6c0.8,0.1,1.6-0.1,2.4-0.5c0.7-0.4,1.2-1.2,1.1-2
		c0.1-0.9-0.4-1.7-1.2-2.1c-1.1-0.5-2.2-0.9-3.4-1.1c-1.5-0.3-2.9-0.8-4.2-1.7C38.6,11,38,9.6,38,8.2c0-1.5,0.8-3,2.1-3.9
		c1.4-0.9,3-1.3,4.6-1.2c1.7-0.1,3.5,0.4,4.9,1.4c1.6,1.2,2.4,3.1,2.4,5h-3.6c0.2-1.2-0.3-2.3-1.3-3c-0.7-0.5-1.5-0.7-2.4-0.7
		c-0.8-0.1-1.5,0.1-2.2,0.5c-0.6,0.4-0.9,1-1,1.6c-0.1,0.7,0.2,1.5,0.8,2c0.6,0.5,1.4,0.7,3.4,1.2c1.4,0.3,2.7,0.7,4,1.4
		c1.5,0.9,2.4,2.5,2.4,4.3c0,1.7-0.8,3.3-2.3,4.2c-1.5,0.8-3.2,1.3-4.9,1.2c-1.7,0.1-3.3-0.4-4.7-1.3c-1.7-1.2-2.7-3.1-2.7-5.2
		L41.2,15.6L41.2,15.6z"/>
	<path class="st2" d="M58,8.7v7.4c0,0.7,0,1.3,0.3,2c0.4,0.7,1.2,1.2,2,1.1c0.9,0,1.7-0.4,2.2-1.2c0.5-0.8,0.7-1.8,0.6-2.7V8.7h3.4
		v12.8h-3.3l-0.2-1.7c-0.3,0.5-0.8,1-1.3,1.3c-0.9,0.5-1.8,0.8-2.9,0.8c-1.4,0.1-2.7-0.6-3.5-1.7c-0.8-1.3-1.1-2.8-1-4.4V8.7H58
		L58,8.7z"/>
	<path class="st2" d="M72.8,8.7l0.2,1.7c0.3-0.5,0.8-1,1.3-1.3C75.1,8.6,76,8.4,77,8.4c1.4-0.1,2.8,0.5,3.7,1.7
		c0.7,1.2,1,2.7,0.9,4.1v7.4H78v-7.4c0-0.6,0-1.3-0.2-1.9c-0.4-0.8-1.2-1.3-2-1.2c-0.9,0-1.7,0.4-2.2,1.2C73.1,13.1,72.9,14,73,15
		v6.6h-3.4V8.7C69.5,8.7,72.8,8.7,72.8,8.7z"/>
	<path class="st2" d="M87.4,17.7c0,0.6,0.2,1.1,0.6,1.5c0.5,0.4,1.2,0.6,1.8,0.6c0.5,0,1.1-0.1,1.5-0.4c0.4-0.3,0.7-0.7,0.7-1.2
		c0-0.7-0.5-1.4-1.2-1.5c-0.6-0.2-0.9-0.3-2.6-0.8c-1.1-0.2-2.1-0.7-3-1.3C84.6,14,84.2,13,84.3,12c0-1.2,0.6-2.4,1.7-3
		c1.1-0.6,2.4-0.9,3.7-0.8C91,8.1,92.3,8.4,93.5,9c1.4,0.8,2.2,2.3,2.2,3.9h-3.5v-0.3c0-0.7-0.3-1.3-0.8-1.7c-0.4-0.3-1-0.4-1.5-0.4
		c-0.5,0-1,0.1-1.5,0.3C88,11,87.7,11.5,87.7,12c0,0.5,0.2,0.9,0.6,1.2c0.7,0.4,1.4,0.6,2.2,0.7c1.2,0.2,2.3,0.6,3.4,1.2
		c1.1,0.6,1.8,1.8,1.7,3c0,1.4-0.8,2.7-2,3.2c-1.2,0.5-2.5,0.8-3.8,0.7c-1.5,0.1-3-0.3-4.3-1.2c-1.1-0.9-1.7-2.2-1.7-3.5h3.6
		L87.4,17.7L87.4,17.7z"/>
	<path class="st2" d="M101.7,3.6v6.9c0.3-0.5,0.7-0.9,1.2-1.2c0.8-0.6,1.9-0.9,2.9-0.8c1.4,0,2.7,0.6,3.6,1.7
		c0.8,1.2,1.1,2.7,0.9,4.1v7.4h-3.5v-7.3c0-0.7,0-1.3-0.3-1.9c-0.3-0.8-1.1-1.3-2-1.3c-0.9,0-1.8,0.5-2.3,1.2
		c-0.5,0.9-0.7,1.8-0.6,2.8v6.5h-3.4v-18C98.2,3.6,101.7,3.6,101.7,3.6z"/>
	<path class="st2" d="M116.8,3.6v3h-3.4v-3H116.8z M116.8,8.7v12.8h-3.4V8.7L116.8,8.7L116.8,8.7z"/>
	<path class="st2" d="M123.3,8.7l0.2,1.7c0.3-0.5,0.8-1,1.3-1.3c0.8-0.5,1.8-0.8,2.8-0.8c1.4-0.1,2.8,0.5,3.7,1.7
		c0.7,1.2,1,2.7,0.9,4.1v7.4h-3.5v-7.4c0-0.6,0-1.3-0.2-1.9c-0.4-0.8-1.2-1.3-2-1.2c-0.9,0-1.8,0.4-2.2,1.2
		c-0.5,0.8-0.7,1.8-0.6,2.7v6.6H120V8.7H123.3L123.3,8.7z"/>
	<path class="st2" d="M147.6,17.3c-0.2,1.1-0.7,2.1-1.5,2.9c-1.4,1.3-3.2,1.9-5,1.8c-1.9,0.1-3.7-0.6-5-2c-1.2-1.4-1.8-3.1-1.7-4.9
		c-0.1-1.8,0.6-3.6,1.8-5c2.8-2.6,7.2-2.5,9.9,0.2c1.2,1.5,1.7,3.3,1.6,5.2v0.2h-9.9c0,0.9,0.2,1.7,0.6,2.5c0.6,0.9,1.6,1.5,2.6,1.5
		c0.9,0.1,1.7-0.3,2.3-1c0.4-0.4,0.6-0.9,0.7-1.5L147.6,17.3L147.6,17.3z M138.5,11.6c-0.4,0.6-0.7,1.4-0.7,2.1h6.4
		c0-0.8-0.2-1.5-0.7-2.1c-0.6-0.7-1.6-1.2-2.6-1.1C140.1,10.4,139.1,10.8,138.5,11.6z"/>
	<path class="st2" d="M172.4,11.5v1c0.1,2.3-0.5,4.6-1.8,6.5c-1.6,2-4.1,3.2-6.6,3.1c-2.4,0.1-4.7-0.9-6.3-2.8
		c-1.4-1.9-2.2-4.3-2.1-6.7c-0.1-2.4,0.6-4.8,2.1-6.7c1.5-1.9,3.9-2.9,6.3-2.8c2-0.1,4,0.6,5.6,1.9c1.5,1.3,2.3,3,2.5,5h-3.6
		c0-1-0.4-2-1.1-2.7c-0.8-0.9-2-1.4-3.2-1.3c-1.6-0.1-3.1,0.7-3.9,2.1c-0.7,1.4-1.1,2.9-1,4.5c-0.1,1.6,0.3,3.2,1,4.6
		c0.8,1.4,2.3,2.1,3.9,2.1c1.3,0,2.5-0.5,3.4-1.4c0.7-0.9,1.2-1.9,1.2-3v-0.4h-6.1v-2.7H172.4z"/>
	<path class="st2" d="M178.2,8.7l0.2,1.8c0.3-0.6,0.7-1,1.1-1.4c0.6-0.5,1.4-0.7,2.2-0.7c0.6,0,1.2,0.1,1.8,0.4V12
		c-0.7-0.6-1.5-0.9-2.4-0.8c-0.8,0-1.6,0.5-2.1,1.1c-0.5,0.9-0.7,2-0.6,3v6.3h-3.4V8.7H178.2L178.2,8.7z"/>
	<path class="st2" d="M186.6,10.2c2.8-2.5,7-2.5,9.8,0c1.3,1.3,2,3.1,1.9,5c0.1,1.8-0.6,3.6-1.9,5c-2.8,2.5-7,2.5-9.8,0
		c-1.3-1.3-2-3.1-1.9-5C184.6,13.3,185.3,11.5,186.6,10.2z M188.8,17.8c0.7,1.5,2.5,2.1,4,1.4c0.6-0.3,1.1-0.8,1.4-1.4
		c0.4-0.8,0.5-1.8,0.5-2.7c0-0.9-0.2-1.8-0.5-2.7c-0.7-1.5-2.5-2.1-4-1.4c-0.6,0.3-1.1,0.8-1.4,1.4c-0.4,0.8-0.5,1.8-0.5,2.7
		C188.3,16,188.4,16.9,188.8,17.8z"/>
	<path class="st2" d="M204.1,8.7v7.4c0,0.7,0,1.3,0.3,2c0.4,0.7,1.2,1.2,2,1.1c0.9,0,1.7-0.4,2.2-1.2c0.5-0.8,0.7-1.8,0.6-2.7V8.7
		h3.4v12.8h-3.3l-0.2-1.7c-0.3,0.5-0.8,1-1.3,1.3c-0.9,0.5-1.8,0.8-2.9,0.8c-1.4,0.1-2.7-0.6-3.5-1.7c-0.8-1.3-1.1-2.8-1-4.4V8.7
		H204.1z"/>
	<path class="st2" d="M218.9,8.7l0.2,1.7c0.8-1.4,2.3-2.2,3.9-2.1c1.7-0.1,3.3,0.6,4.4,1.9c1.1,1.4,1.7,3.1,1.6,4.9
		c0.1,1.8-0.5,3.5-1.6,4.9c-1.1,1.3-2.7,2-4.4,1.9c-1.6,0.1-3.1-0.8-3.9-2.2v6.9h-3.5v-18H218.9L218.9,8.7z M219.7,18
		c0.9,1.4,2.8,1.8,4.2,0.8c0.3-0.2,0.6-0.5,0.8-0.8c0.5-0.9,0.8-1.9,0.7-2.9c0-1-0.2-2-0.7-2.8c-0.9-1.4-2.8-1.8-4.2-0.8
		c-0.3,0.2-0.6,0.5-0.8,0.8c-0.5,0.9-0.8,1.8-0.7,2.8C218.9,16.1,219.2,17.1,219.7,18z"/>
</g>
</svg>
